<svg width="225" height="41" xmlns="http://www.w3.org/2000/svg">

 <g>
  <title>Layer 1</title>
  <g id="svg_1">
   <svg id="svg_3" x="0" viewBox="0 0 205 41" height="41" width="205" class="c-logo__bg" xmlns="http://www.w3.org/2000/svg" xmlns:xlink="http://www.w3.org/1999/xlink">
    <g id="svg_4" fill-rule="evenodd" fill="none">
     <path id="svg_5" d="m104.25,12.96c4.76,0 8.96,3.77 8.96,9.59c0,1.9 -0.43,3.58 -1.18,4.99a8.74,8.74 0 0 1 -7.83,4.8c-2.27,0 -4.46,-0.92 -5.39,-2.58l0,11.16l-0.03,0l0,0.08l-5.46,0l0,-27.5l0.02,0l0,-0.14l5.47,0l0,2.3c0.92,-1.7 3.14,-2.7 5.44,-2.7zm-15.2,-9.66l0,28.65l-5.46,0l0,-0.1l-0.01,0l0,-2.18c-0.91,1.7 -3.13,2.68 -5.42,2.68a8.84,8.84 0 0 1 -8.52,-6.53c-0.3,-0.96 -0.46,-2.02 -0.46,-3.15c0,-5.94 4.2,-9.7 8.96,-9.7c2.3,0 4.53,0.94 5.44,2.65l0,-12.32l5.47,0zm84.63,9.66c5.27,0 9.48,3.93 9.48,9.75c0,0.47 -0.04,1.22 -0.08,1.7l-0.23,0l-0.01,0.12l-13.3,0c0.34,2.05 2.62,2.97 4.53,2.97c0.87,0 1.78,-0.2 2.57,-0.58c0.49,-0.27 0.92,-0.62 1.25,-1.05l0.08,0.05l0.15,-0.16l4,2.73a7.85,7.85 0 0 1 -3.41,2.77a12.39,12.39 0 0 1 -5.25,1.09c-5.3,0 -9.66,-3.87 -9.66,-9.68a9.22,9.22 0 0 1 4.29,-8.08a10.08,10.08 0 0 1 5.59,-1.63zm-38.53,0c3.3,0 6.27,1.43 8.06,3.93l-0.16,0.1c0,0.02 0.01,0.02 0.02,0.03l-4.48,3.2a4.2,4.2 0 0 0 -3.56,-1.86a4.8,4.8 0 0 0 -3.45,1.43a4.1,4.1 0 0 0 -1.03,2.76a4.51,4.51 0 0 0 4.6,4.43c1.04,0 2.06,-0.36 2.82,-1c0.24,-0.22 0.45,-0.47 0.62,-0.74l0.03,0.02l0.1,-0.14l4.49,3.17a8.8,8.8 0 0 1 -2.03,2.06a10.1,10.1 0 0 1 -6.15,2c-5.3,0 -10.05,-3.87 -10.05,-9.68c0,-2.22 0.7,-4.14 1.85,-5.67a10.24,10.24 0 0 1 8.32,-4.04zm-101.8,0c1.13,0 3.7,0.36 5.17,2.16l0.23,0.28l0,-2.04l5.47,0l0,0.14l0.11,0l0,18.45l-5.46,0l0,-0.1l-0.12,0l0,-1.83c-1.24,1.66 -3.88,2.29 -5.26,2.29c-2.07,0 -4.14,-0.7 -5.8,-2a9.4,9.4 0 0 1 -3.78,-7.72a9.44,9.44 0 0 1 9.44,-9.62l0,-0.01zm-27.48,-8.39l0,11.13l9.6,0l0,-10.97l0.12,0l0,-0.16l5.87,0l0,27.28l-0.13,0l0,0.1l-5.86,0l0,-10.94l-9.6,0l0,10.84l-0.1,0l0,0.1l-5.77,0l0,-27.22l0.08,0l0,-0.16l5.79,0zm116.03,8.8l0,18.5l-0.09,0l0,0.1l-5.46,0l0,-18.47l0.08,0l0,-0.14l5.47,0l0,0.01zm29.8,-10.07l0,15.07l4.23,-4.87l0.05,0l0.12,-0.14l7.02,0l-7.7,8.16l9.25,10.33l-0.28,0l0.08,0.1l-6.76,0l-6.01,-7.11l0,7.01l-0.17,0l0,0.1l-5.46,0l0,-28.48l0.15,0l0,-0.17l5.48,0zm-92.32,9.66c2.9,0 5.06,1.26 6.1,3.8c0.47,1.13 0.73,2.52 0.73,4.17l0,11.02l-5.5,0l0,-0.1l-0.06,0l0,-9.85c0,-0.76 -0.13,-1.4 -0.37,-1.93a2.93,2.93 0 0 0 -2.77,-1.62c-1.94,0 -3.4,0.95 -3.4,3.76l0,9.75l-5.5,0l0,-0.1l-0.1,0l0,-18.5l5.51,0l0,0.14l0.08,0l0,2.43a6.2,6.2 0 0 1 5.28,-2.97zm43.8,5.36a4.23,4.23 0 0 0 -4.25,4.35a4.2,4.2 0 0 0 4.29,4.4c1.72,0 3.22,-0.95 3.9,-2.5c0.21,-0.53 0.33,-1.13 0.33,-1.78c0,-2.73 -1.94,-4.47 -4.28,-4.47l0.01,0zm-23.99,-0.04a4.2,4.2 0 0 0 -4.27,4.39a4.17,4.17 0 0 0 4.26,4.35a4.3,4.3 0 0 0 4.26,-4.87a4.15,4.15 0 0 0 -4.25,-3.87zm-44.8,0.04c-2.29,0 -4.63,1.74 -4.63,4.39c0,1.3 0.58,2.4 1.43,3.16a4.88,4.88 0 0 0 3.08,1.11c2.26,0 4.48,-1.62 4.48,-4.4c0,-1.18 -0.41,-2.16 -1.06,-2.89a4.6,4.6 0 0 0 -3.3,-1.37zm139.1,-0.4c-0.71,0 -1.55,0.2 -2.3,0.62a3.71,3.71 0 0 0 -1.6,2.42l7.76,0c-0.34,-2.15 -2.34,-3.03 -3.85,-3.03l-0.01,-0.01zm-54.31,-14.62c1.86,0 3.37,1.39 3.37,3.2c0,0.62 -0.17,1.18 -0.47,1.67a3.36,3.36 0 0 1 -2.99,1.74c-1.86,0 -3.44,-1.42 -3.44,-3.24a3.46,3.46 0 0 1 3.53,-3.37z" fill="#fff"/>
    </g>
   </svg>
  </g>
  <svg y="1.11111" id="svg_6" x="186.3889" class="c-logo__gripper" viewBox="0 0 20 32" height="32" width="20" xmlns="http://www.w3.org/2000/svg" xmlns:xlink="http://www.w3.org/1999/xlink">
   <path id="svg_7" d="m10.35,0l-4.88,2.17l4.95,10.33c-0.18,-0.01 -0.36,-0.03 -0.55,-0.03c-4.51,0 -8.52,2.92 -9.75,7.1l5.17,1.41a4.75,4.75 0 0 1 4.58,-3.33a4.68,4.68 0 0 1 4.75,4.58a4.68,4.68 0 0 1 -4.75,4.59a4.7,4.7 0 0 1 -4.63,-3.54l-5.24,1.17a10.02,10.02 0 0 0 9.87,7.55c5.58,0 10.13,-4.38 10.13,-9.77c0,-1.73 -0.56,-3.34 -1.28,-4.78l-8.37,-17.45z" fill-rule="evenodd" fill="#fff"/>
  </svg>
 </g>
</svg>